<svg width="200" height="200" viewBox="0 0 200 200" fill="none" xmlns="http://www.w3.org/2000/svg">
<path d="M188.061 141.25C173.483 117.5 158.904 121.25 142.868 120C144.326 123.75 144.326 127.5 144.326 132.5C167.651 137.5 173.483 161.25 173.483 175V187.5H144.326V175H158.904C158.904 175 158.904 143.75 137.037 143.75C115.169 143.75 115.169 173.75 115.169 175H129.748V187.5H100.591V175C100.591 161.25 106.422 136.25 129.748 132.5C129.748 125 128.29 118.75 126.832 116.25C123.916 115 121.001 112.5 121.001 108.75C121.001 101.25 132.663 103.75 141.41 90C141.41 90 154.531 61.25 150.157 36.25H135.579C135.579 33.75 137.037 32.5 137.037 30C137.037 27.5 137.037 26.25 135.579 23.75H147.242C142.868 11.25 128.29 0 100.591 0C72.8919 0 58.3135 11.25 52.4821 25H64.1449C64.1449 27.5 62.687 28.75 62.687 31.25C62.687 33.75 62.687 35 64.1449 37.5H49.5665C46.6508 62.5 58.3135 91.25 58.3135 91.25C67.0605 103.75 78.7232 101.25 78.7232 110C78.7232 116.25 71.434 118.75 62.687 120C59.7713 122.5 56.8557 127.5 56.8557 137.5V152.5C65.6027 155 71.434 162.5 71.434 170C71.434 178.75 61.2292 187.5 49.5665 187.5C37.9038 187.5 27.6989 178.75 27.6989 168.75C27.6989 160 33.5303 153.75 42.2773 151.25V136.25C42.2773 130 43.7351 125 45.193 120C34.9881 121.25 23.3254 125 13.1205 141.25C4.37351 155 0 200 0 200H199.724C201.182 200 196.808 155 188.061 141.25ZM78.7232 31.25C78.7232 21.25 88.9281 12.5 100.591 12.5C112.253 12.5 122.458 21.25 122.458 31.25C122.458 41.25 112.253 50 100.591 50C88.9281 50 78.7232 41.25 78.7232 31.25Z" fill="white"/>
<path d="M68.4109 168.75C68.4109 170.408 67.7524 171.997 66.5803 173.169C65.4082 174.342 63.8185 175 62.1609 175C60.5033 175 58.9136 174.342 57.7415 173.169C56.5694 171.997 55.9109 170.408 55.9109 168.75C55.9109 167.092 56.5694 165.503 57.7415 164.331C58.9136 163.158 60.5033 162.5 62.1609 162.5C63.8185 162.5 65.4082 163.158 66.5803 164.331C67.7524 165.503 68.4109 167.092 68.4109 168.75Z" fill="white"/>
</svg>
