<svg width="200" height="200" viewBox="0 0 200 200" fill="none" xmlns="http://www.w3.org/2000/svg">
<path d="M50 0C20 0 0 30 0 60C0 81.1 10 110 20 120C30 130 40 200 60 200C105.4 200 80 130 100 130C120 130 94.6 200 140 200C160 200 170 130 180 120C190 110 200 81.1 200 60C200 30 180 0 150 0C120 0 120 10 100 10C80 10 80 0 50 0ZM50 20C70 20 80 30 100 30C120 30 130 20 150 20C166.7 20 180 40 180 60C180 77.5 171.4 101.1 161.9 110.6C153.3 119.2 140.6 179.4 135 179.4C132.9 179.4 130 168.8 130 155.9C130 135.5 124.3 110 100 110C75.7 110 70 135.5 70 155.9C70 168.8 67.1 179.4 65 179.4C59.4 179.4 46.7 119.2 38.1 110.6C28.6 101.1 20 77.5 20 60C20 40 33.3 20 50 20Z" fill="white"/>
</svg>
