<svg width="200" height="198" viewBox="0 0 200 198" fill="none" xmlns="http://www.w3.org/2000/svg">
<path d="M184.332 39.9595C184.332 38.7566 183.911 37.8735 183.497 37.3923C183.297 37.1588 183.129 37.0526 183.047 37.0118C182.976 36.9772 182.954 36.9806 182.949 36.9806H153.917V50.694C153.917 54.9774 150.41 58.4498 146.083 58.4498C141.756 58.4498 138.249 54.9774 138.249 50.694V36.9806H61.7512V50.694C61.7512 54.9774 58.2437 58.4498 53.9171 58.4498C49.5904 58.4498 46.0829 54.9774 46.0829 50.694V36.9806H17.0507C17.0464 36.9806 17.0239 36.9772 16.9535 37.0118C16.8707 37.0526 16.703 37.1588 16.5026 37.3923C16.0895 37.8735 15.6682 38.7566 15.6682 39.9595V179.51C15.6682 180.713 16.0895 181.596 16.5026 182.077C16.703 182.31 16.8707 182.416 16.9535 182.457C17.0239 182.492 17.0464 182.488 17.0507 182.488H182.949C182.954 182.488 182.976 182.492 183.047 182.457C183.129 182.416 183.297 182.31 183.497 182.077C183.91 181.596 184.332 180.713 184.332 179.51V39.9595ZM146.083 134.182C150.41 134.182 153.917 137.655 153.917 141.938C153.917 146.222 150.41 149.694 146.083 149.694H53.9171C49.5904 149.694 46.0829 146.222 46.0829 141.938C46.0831 137.655 49.5905 134.182 53.9171 134.182H146.083ZM104.608 91.2442L105.012 91.254C109.151 91.4618 112.442 94.8505 112.442 99C112.442 103.15 109.151 106.538 105.012 106.746L104.608 106.756H53.9171C49.5904 106.756 46.083 103.283 46.0829 99C46.0829 94.7166 49.5904 91.2442 53.9171 91.2442H104.608ZM200 179.51C200 188.492 193.512 198 182.949 198H17.0507C6.48837 198 2.6819e-05 188.492 0 179.51V39.9595C7.5425e-05 30.9773 6.48841 21.4691 17.0507 21.4691H46.0829V7.75576C46.0829 3.47237 49.5904 0 53.9171 0C58.2437 0 61.7512 3.47237 61.7512 7.75576V21.4691H138.249V7.75576C138.249 3.47237 141.756 0 146.083 0C150.41 0 153.917 3.47237 153.917 7.75576V21.4691H182.949C193.512 21.4691 200 30.9773 200 39.9595V179.51Z" fill="white"/>
</svg>
