<svg width="194" height="200" viewBox="0 0 194 200" fill="none" xmlns="http://www.w3.org/2000/svg">
<path d="M22.2222 200C16.1111 200 10.8815 197.826 6.53333 193.478C2.18519 189.13 0.00740741 183.896 0 177.778V22.2222C0 16.1111 2.17778 10.8815 6.53333 6.53333C10.8889 2.18519 16.1185 0.00740741 22.2222 0H88.8889C95.0254 0 100 4.97461 100 11.1111V11.1111C100 17.2476 95.0254 22.2222 88.8889 22.2222H29.2222C25.3562 22.2222 22.2222 25.3562 22.2222 29.2222V170.778C22.2222 174.644 25.3562 177.778 29.2222 177.778H88.8889C95.0254 177.778 100 182.752 100 188.889V188.889C100 195.025 95.0254 200 88.8889 200H22.2222ZM152.503 147.497C148.087 151.913 140.9 151.817 136.603 147.286V147.286C132.464 142.922 132.556 136.056 136.808 131.803L157.5 111.111H77.7778C71.6413 111.111 66.6667 106.136 66.6667 100V100C66.6667 93.8635 71.6413 88.8889 77.7778 88.8889H157.5L136.808 68.1972C132.556 63.9444 132.464 57.0779 136.603 52.7138V52.7138C140.9 48.1827 148.087 48.0873 152.503 52.5028L189.393 89.3934C195.251 95.2513 195.251 104.749 189.393 110.607L152.503 147.497Z" fill="white"/>
</svg>
