<svg width="200" height="199" viewBox="0 0 200 199" fill="none" xmlns="http://www.w3.org/2000/svg">
<path d="M183.383 72.7978L43.3904 3.12787C37.8656 0.390929 31.6272 -0.583442 25.5257 0.337607C19.4242 1.25866 13.7566 4.0303 9.29552 8.27465C4.83448 12.519 1.79714 18.0295 0.597603 24.0548C-0.601932 30.0802 0.0947168 36.3271 2.59257 41.944L26.5913 95.3908C27.1358 96.683 27.4163 98.0702 27.4163 99.4715C27.4163 100.873 27.1358 102.26 26.5913 103.552L2.59257 156.999C0.559679 161.545 -0.299718 166.524 0.0924744 171.484C0.484667 176.444 2.11602 181.228 4.83826 185.401C7.56051 189.575 11.2874 193.004 15.6801 195.379C20.0728 197.754 24.9922 198.999 29.9911 199C34.6731 198.953 39.2855 197.865 43.4903 195.815L183.483 126.145C188.448 123.659 192.622 119.848 195.539 115.138C198.456 110.428 200 105.004 200 99.4715C200 93.9388 198.456 88.5149 195.539 83.8049C192.622 79.095 188.448 75.2842 183.483 72.7978H183.383ZM174.483 108.33L34.4908 177.999C32.6526 178.878 30.5884 179.176 28.575 178.854C26.5617 178.532 24.6955 177.604 23.2266 176.197C21.7577 174.789 20.7564 172.967 20.3569 170.977C19.9574 168.987 20.1789 166.922 20.9916 165.061L44.8903 111.614C45.1996 110.9 45.4668 110.169 45.6902 109.424H114.586C117.238 109.424 119.782 108.376 121.657 106.509C123.532 104.643 124.586 102.111 124.586 99.4715C124.586 96.8318 123.532 94.3003 121.657 92.4338C119.782 90.5672 117.238 89.5186 114.586 89.5186H45.6902C45.4668 88.7738 45.1996 88.0427 44.8903 87.329L20.9916 33.8822C20.1789 32.0206 19.9574 29.9563 20.3569 27.9659C20.7564 25.9755 21.7577 24.1543 23.2266 22.7464C24.6955 21.3385 26.5617 20.4113 28.575 20.089C30.5884 19.7668 32.6526 20.0649 34.4908 20.9435L174.483 90.6134C176.121 91.4487 177.496 92.7176 178.456 94.2805C179.415 95.8434 179.923 97.6397 179.923 99.4715C179.923 101.303 179.415 103.1 178.456 104.662C177.496 106.225 176.121 107.494 174.483 108.33Z" fill="white"/>
</svg>
