<svg width="200" height="200" viewBox="0 0 200 200" fill="none" xmlns="http://www.w3.org/2000/svg">
<path d="M100 200C76.6667 200 56.0185 192.918 38.0556 178.755C20.0926 164.593 8.42593 146.489 3.05556 124.444C2.31482 121.667 2.87037 119.122 4.72222 116.811C6.57407 114.5 9.07407 113.156 12.2222 112.778C15.1852 112.407 17.8704 112.963 20.2778 114.444C22.6852 115.926 24.3519 118.148 25.2778 121.111C29.7222 137.778 38.8889 151.389 52.7778 161.944C66.6667 172.5 82.4074 177.778 100 177.778C121.667 177.778 140.048 170.233 155.144 155.144C170.241 140.056 177.785 121.674 177.778 100C177.77 78.3259 170.226 59.9481 155.144 44.8667C140.063 29.7852 121.681 22.237 100 22.2222C87.2222 22.2222 75.2778 25.1852 64.1667 31.1111C53.0555 37.037 43.7037 45.1852 36.1111 55.5555H55.5556C58.7037 55.5555 61.3444 56.6222 63.4778 58.7555C65.6111 60.8889 66.6741 63.5259 66.6667 66.6666C66.6593 69.8074 65.5926 72.4481 63.4667 74.5889C61.3407 76.7296 58.7037 77.7926 55.5556 77.7777H11.1111C7.96296 77.7777 5.32593 76.7111 3.2 74.5778C1.07407 72.4444 0.00740741 69.8074 0 66.6666V22.2222C0 19.0741 1.06667 16.437 3.2 14.3111C5.33333 12.1852 7.97037 11.1185 11.1111 11.1111C14.2519 11.1037 16.8926 12.1704 19.0333 14.3111C21.1741 16.4518 22.237 19.0889 22.2222 22.2222V37.2222C31.6667 25.3704 43.1963 16.2037 56.8111 9.72222C70.4259 3.24074 84.8222 0 100 0C113.889 0 126.9 2.64074 139.033 7.92222C151.167 13.2037 161.722 20.3296 170.7 29.3C179.678 38.2704 186.807 48.8259 192.089 60.9666C197.37 73.1074 200.007 86.1185 200 100C199.993 113.881 197.356 126.893 192.089 139.033C186.822 151.174 179.693 161.73 170.7 170.7C161.707 179.67 151.152 186.8 139.033 192.089C126.915 197.378 113.904 200.015 100 200ZM111.111 95.5555L138.889 123.333C140.926 125.37 141.944 127.963 141.944 131.111C141.944 134.259 140.926 136.852 138.889 138.889C136.852 140.926 134.259 141.944 131.111 141.944C127.963 141.944 125.37 140.926 123.333 138.889L92.2222 107.778C91.1111 106.667 90.2778 105.418 89.7222 104.033C89.1667 102.648 88.8889 101.211 88.8889 99.7222V55.5555C88.8889 52.4074 89.9555 49.7704 92.0889 47.6444C94.2222 45.5185 96.8592 44.4518 100 44.4444C103.141 44.437 105.781 45.5037 107.922 47.6444C110.063 49.7852 111.126 52.4222 111.111 55.5555V95.5555Z" fill="white"/>
</svg>
